<?xml version="1.0" encoding="UTF-8"?>
<svg width="3px" height="19px" viewBox="0 0 3 19" version="1.1" xmlns="http://www.w3.org/2000/svg" xmlns:xlink="http://www.w3.org/1999/xlink">
    <!-- Generator: Sketch 44.1 (41455) - http://www.bohemiancoding.com/sketch -->
    <title>ico_action_more_android__m__white</title>
    <desc>Created with Sketch.</desc>
    <defs></defs>
    <g id="Actual" stroke="none" stroke-width="1" fill="none" fill-rule="evenodd">
        <g id="new-payment-empty" transform="translate(-350.000000, -132.000000)">
            <g id="Group" transform="translate(12.000000, 129.000000)">
                <g id="ico_action_more_android__m__white" transform="translate(327.000000, 0.000000)">
                    <polygon id="Shape" points="0 0 24 0 24 24 0 24"></polygon>
                    <path d="M12.5,6 C11.672,6 11,5.328 11,4.5 C11,3.672 11.672,3 12.5,3 C13.328,3 14,3.672 14,4.5 C14,5.328 13.328,6 12.5,6 Z M12.5,14 C11.672,14 11,13.328 11,12.5 C11,11.672 11.672,11 12.5,11 C13.328,11 14,11.672 14,12.5 C14,13.328 13.328,14 12.5,14 Z M12.5,22 C11.672,22 11,21.328 11,20.5 C11,19.672 11.672,19 12.5,19 C13.328,19 14,19.672 14,20.5 C14,21.328 13.328,22 12.5,22 Z" id="Combined-Shape" fill="#FFFFFF"></path>
                </g>
            </g>
        </g>
    </g>
</svg>