<?xml version="1.0" encoding="UTF-8"?>
<svg width="24px" height="24px" viewBox="0 0 24 24" version="1.1" xmlns="http://www.w3.org/2000/svg" xmlns:xlink="http://www.w3.org/1999/xlink">
    <!-- Generator: Sketch 44.1 (41455) - http://www.bohemiancoding.com/sketch -->
    <title>icon_tool_payment_to_self__m__white</title>
    <desc>Created with Sketch.</desc>
    <defs></defs>
    <g id="Actual" stroke="none" stroke-width="1" fill="none" fill-rule="evenodd">
        <g id="suggest-copy-2" transform="translate(-12.000000, -264.000000)">
            <g id="icon_tool_payment_to_self__m__white" transform="translate(12.000000, 264.000000)">
                <g id="ungroup">
                    <rect id="Rectangle-path" x="0" y="0" width="24" height="24"></rect>
                    <path d="M12,15 C8.2,15 6,10.7 6,6.5 C6,3.5 6.7,0 12,0 C17.3,0 18,3.5 18,6.5 C18,10.7 15.8,15 12,15 L12,15 Z M12,1 C8.4,1 7,2.6 7,6.5 C7,9.6 8.6,14 12,14 C15.4,14 17,9.6 17,6.5 C17,2.6 15.6,1 12,1 L12,1 Z" id="Shape" fill="#0B1F35"></path>
                    <path d="M1,24 L0,24 C0,20.3 4.7,17.9 6.2,17.1 C8.2,16.1 8.5,15.7 8.5,13.3 L9.5,13.3 C9.5,16.1 9,16.8 6.6,18 C5.3,18.7 1,20.9 1,24 L1,24 Z" id="Shape" fill="#0B1F35"></path>
                    <path d="M24,24 L23,24 C23,20.9 18.7,18.7 17.3,18 C14.9,16.8 14.4,16 14.4,13.3 L15.4,13.3 C15.4,15.8 15.8,16.2 17.7,17.1 C19.3,17.9 24,20.3 24,24 L24,24 Z" id="Shape" fill="#0B1F35"></path>
                    <path d="M12,15 C8.2,15 6,10.7 6,6.5 C6,3.5 6.7,0 12,0 C17.3,0 18,3.5 18,6.5 C18,10.7 15.8,15 12,15 L12,15 Z M12,1 C8.4,1 7,2.6 7,6.5 C7,9.6 8.6,14 12,14 C15.4,14 17,9.6 17,6.5 C17,2.6 15.6,1 12,1 L12,1 Z" id="Shape" fill="#0B1F35"></path>
                    <path d="M1,24 L0,24 C0,20.3 4.7,17.9 6.2,17.1 C8.2,16.1 8.5,15.7 8.5,13.3 L9.5,13.3 C9.5,16.1 9,16.8 6.6,18 C5.3,18.7 1,20.9 1,24 L1,24 Z" id="Shape" fill="#0B1F35"></path>
                    <path d="M24,24 L23,24 C23,20.9 18.7,18.7 17.3,18 C14.9,16.8 14.4,16 14.4,13.3 L15.4,13.3 C15.4,15.8 15.8,16.2 17.7,17.1 C19.3,17.9 24,20.3 24,24 L24,24 Z" id="Shape" fill="#0B1F35"></path>
                    <g id="Group" opacity="0.3"></g>
                </g>
            </g>
        </g>
    </g>
</svg>