<?xml version="1.0" encoding="UTF-8"?>
<svg width="22px" height="22px" viewBox="0 0 22 22" version="1.1" xmlns="http://www.w3.org/2000/svg" xmlns:xlink="http://www.w3.org/1999/xlink">
    <!-- Generator: Sketch 44.1 (41455) - http://www.bohemiancoding.com/sketch -->
    <title>icon_tool_notifications__m__white</title>
    <desc>Created with Sketch.</desc>
    <defs></defs>
    <g id="Actual" stroke="none" stroke-width="1" fill="none" fill-rule="evenodd">
        <g id="new-payment-full" transform="translate(-13.000000, -1867.000000)">
            <g id="Group-3" transform="translate(12.000000, 1866.000000)">
                <g id="icon_tool_notifications__m__white">
                    <g id="art">
                        <rect id="Rectangle-path" x="0" y="0" width="24" height="24"></rect>
                        <path d="M15.4106922,23 C15.0901008,23 14.6586877,22.8782945 14.1876955,22.4063147 L1.59360026,9.81325897 C0.905912004,9.12557345 0.961322856,8.52298282 1.05532341,8.22416119 C1.15031344,7.92533957 1.45012573,7.40091751 2.40695242,7.23270667 L6.25108032,6.55293694 L9.64004765,3.16497256 C11.0362032,1.76882252 12.8993932,1 14.8872575,1 C16.8751218,1 18.7393012,1.76882252 20.1354568,3.16497256 L20.8350188,3.8645318 C22.2311744,5.26068184 23,7.12485383 23,9.11271026 C23,11.1005667 22.2311744,12.9637492 20.8350188,14.3598993 L17.447041,17.7488531 L16.7672686,21.5939552 C16.599057,22.5497886 16.0746329,22.8515787 15.7758101,22.9445894 C15.6818095,22.9742736 15.5581246,23 15.4106922,23 L15.4106922,23 Z M14.8829534,2 C13.162012,2 11.5478263,2.66520645 10.3399053,3.87404372 L6.7349235,7.47782188 L2.58825538,8.21122929 C2.21362195,8.27646498 2.04261514,8.41682058 2.00900686,8.52554674 C1.97441011,8.63427291 2.03273035,8.84678314 2.30258503,9.11662171 L14.8839419,21.6972274 C15.1518196,21.9650892 15.3643425,22.0263712 15.4750521,21.9907881 C15.5837848,21.9571818 15.7241488,21.7871736 15.7893884,21.4125626 L16.5218511,17.2651536 L20.1258444,13.660387 C21.3347538,12.4525381 22,10.8394372 22,9.11761013 C22,7.39578305 21.3347538,5.78268213 20.1258444,4.57384485 L19.42699,3.87503214 C18.2180805,2.66520645 16.6058718,2 14.8829534,2 L14.8829534,2 Z" id="Shape" fill="#0B1F35"></path>
                        <path d="M8,19.1419367 C6.85591566,20.2860211 5.0021476,20.2860211 3.85806326,19.1419367 C2.71397891,17.9978524 2.71397891,16.1440843 3.85806326,15" id="Shape" fill="#0B1F35" opacity="0.4"></path>
                    </g>
                </g>
            </g>
        </g>
    </g>
</svg>