<?xml version="1.0" encoding="UTF-8"?>
<svg width="36px" height="35px" viewBox="0 0 36 35" version="1.1" xmlns="http://www.w3.org/2000/svg" xmlns:xlink="http://www.w3.org/1999/xlink">
    <!-- Generator: Sketch 44.1 (41455) - http://www.bohemiancoding.com/sketch -->
    <title>icon_category_state__xl__white</title>
    <desc>Created with Sketch.</desc>
    <defs></defs>
    <g id="Actual" stroke="none" stroke-width="1" fill="none" fill-rule="evenodd">
        <g id="1280-Payment-hub" transform="translate(-310.000000, -307.000000)">
            <g id="Group-7" transform="translate(310.000000, 202.000000)">
                <g id="Group-3" transform="translate(0.000000, 104.000000)">
                    <g id="icon_category_state__xl__white">
                        <g id="art">
                            <rect id="Rectangle-path" x="0" y="0" width="36" height="36"></rect>
                            <path d="M25,15 L33,15 L33,35 L36,35 L36,36 L0,36 L0,35 L3,35 L3,15 L11,15 L11,10 L25,10 L25,15 Z M12,15 L24,15 L24,11 L12,11 L12,15 Z M4,35 L32,35 L32,16 L4,16 L4,35 Z" id="Combined-Shape" fill="#0B1F35"></path>
                            <rect id="Rectangle-path" fill="#0B1F35" opacity="0.3" x="10" y="21" width="2" height="14"></rect>
                            <rect id="Rectangle-path" fill="#0B1F35" opacity="0.3" x="17" y="21" width="2" height="14"></rect>
                            <rect id="Rectangle-path" fill="#0B1F35" opacity="0.3" x="24" y="21" width="2" height="14"></rect>
                            <polygon id="Combined-Shape" fill="#0B1F35" opacity="0.3" points="18 1 17 1 17 10 18 10 18 5.16666667 25 6 25 1.83333333"></polygon>
                        </g>
                    </g>
                </g>
            </g>
        </g>
    </g>
</svg>