<?xml version="1.0" encoding="UTF-8"?>
<svg width="24px" height="23px" viewBox="0 0 24 23" version="1.1" xmlns="http://www.w3.org/2000/svg" xmlns:xlink="http://www.w3.org/1999/xlink">
    <!-- Generator: Sketch 44.1 (41455) - http://www.bohemiancoding.com/sketch -->
    <title>icon_category_state__m__white</title>
    <desc>Created with Sketch.</desc>
    <defs></defs>
    <g id="Actual" stroke="none" stroke-width="1" fill="none" fill-rule="evenodd">
        <g id="Payment-hub-00" transform="translate(-22.000000, -401.000000)">
            <g id="history" transform="translate(0.000000, 257.000000)">
                <g id="row-/-black-/-xl-/-no_label_service_icon" transform="translate(0.000000, 114.000000)">
                    <g id="icon_category_state__m__white" transform="translate(22.000000, 28.000000)">
                        <g id="art">
                            <rect id="Rectangle-path" x="0" y="0" width="24" height="25"></rect>
                            <path d="M18,12 L22,12 L22,24 L24,24 L24,25 L0,25 L0,24 L2,24 L2,12 L6,12 L6,8 L18,8 L18,12 L18,12 Z M3,24 L21,24 L21,13 L3,13 L3,24 Z M7,12 L17,12 L17,9 L7,9 L7,12 Z" id="Combined-Shape" fill="#FFFFFF"></path>
                            <rect id="Rectangle-path" fill="#FFFFFF" opacity="0.3" x="6" y="16" width="2" height="8"></rect>
                            <rect id="Rectangle-path" fill="#FFFFFF" opacity="0.3" x="11" y="16" width="2" height="8"></rect>
                            <rect id="Rectangle-path" fill="#FFFFFF" opacity="0.3" x="16" y="16" width="2" height="8"></rect>
                            <polygon id="Combined-Shape" fill="#FFFFFF" opacity="0.3" points="12 2 11 2 11 8 12 8 12 5.33333333 17 6 17 2.66666667"></polygon>
                        </g>
                    </g>
                </g>
            </g>
        </g>
    </g>
</svg>