<?xml version="1.0" encoding="UTF-8"?>
<svg width="21px" height="21px" viewBox="0 0 21 21" version="1.1" xmlns="http://www.w3.org/2000/svg" xmlns:xlink="http://www.w3.org/1999/xlink">
    <!-- Generator: Sketch 44.1 (41455) - http://www.bohemiancoding.com/sketch -->
    <title>icon_tool_info__m__white</title>
    <desc>Created with Sketch.</desc>
    <defs></defs>
    <g id="Symbols" stroke="none" stroke-width="1" fill="none" fill-rule="evenodd">
        <g id="more-info" transform="translate(-1.000000, -1.000000)">
            <g id="icon_tool_info__m__white">
                <g id="art">
                    <rect id="ph" x="0" y="0" width="24" height="24"></rect>
                    <path d="M11.5,1 C5.7103,1 1,5.7103 1,11.5 C1,17.2897 5.7103,22 11.5,22 C17.2897,22 22,17.2897 22,11.5 C22,5.7103 17.2897,1 11.5,1 L11.5,1 Z M11.5,21 C6.26233333,21 2,16.7376667 2,11.5 C2,6.26233333 6.26233333,2 11.5,2 C16.7387222,2 21,6.26233333 21,11.5 C21,16.7376667 16.7387222,21 11.5,21 L11.5,21 Z" id="Shape" fill="#0F2338"></path>
                    <circle id="Oval" fill="#0F2338" cx="11.5" cy="7.51" r="1"></circle>
                    <rect id="Rectangle-path" fill="#0F2338" x="11" y="10" width="1" height="7"></rect>
                </g>
            </g>
        </g>
    </g>
</svg>