<?xml version="1.0" encoding="UTF-8"?>
<svg width="20px" height="20px" viewBox="0 0 20 20" version="1.1" xmlns="http://www.w3.org/2000/svg" xmlns:xlink="http://www.w3.org/1999/xlink">
    <!-- Generator: Sketch 44.1 (41455) - http://www.bohemiancoding.com/sketch -->
    <title>icon_tool_history__m__white</title>
    <desc>Created with Sketch.</desc>
    <defs></defs>
    <g id="Actual" stroke="none" stroke-width="1" fill="none" fill-rule="evenodd">
        <g id="new-payment-empty" transform="translate(-14.000000, -1398.000000)">
            <g id="Group-2" transform="translate(12.000000, 1396.000000)">
                <g id="icon_tool_history__m__white">
                    <g id="Layer_2">
                        <rect id="ph_12_" x="0" y="0" width="24" height="24"></rect>
                        <polygon id="Shape" fill="#0B1F35" opacity="0.3" points="12.9607843 6 11 6 11 12.8627451 14.7254902 16 16 14.5294118 12.9607843 11.9803922"></polygon>
                        <path d="M2,12 C2,17.5 6.5,22 12,22 C17.5,22 22,17.5 22,12 C22,6.5 17.5,2 12,2 C6.5,2 2,6.5 2,12 L2,12 Z M12,3 C17,3 21,7 21,12 C21,17 17,21 12,21 C7,21 3,17 3,12 C3,7 7,3 12,3 L12,3 Z" id="Shape" fill="#0B1F35"></path>
                    </g>
                </g>
            </g>
        </g>
    </g>
</svg>