<?xml version="1.0" encoding="UTF-8"?>
<svg width="20px" height="22px" viewBox="0 0 20 22" version="1.1" xmlns="http://www.w3.org/2000/svg" xmlns:xlink="http://www.w3.org/1999/xlink">
    <!-- Generator: Sketch 44.1 (41455) - http://www.bohemiancoding.com/sketch -->
    <title>icon__tool_calendar__m__white</title>
    <desc>Created with Sketch.</desc>
    <defs></defs>
    <g id="Symbols" stroke="none" stroke-width="1" fill="none" fill-rule="evenodd">
        <g id="input/calendar" transform="translate(-274.000000, -30.000000)" fill="#0B1F35">
            <g id="icon__tool_calendar__m__white" transform="translate(274.000000, 30.000000)">
                <g id="art">
                    <path d="M5,0.5 C4.448,0.5 4,0.948 4,1.5 L4,3 L2,3 C0.897,3 0,3.897 0,5 L0,20 C0,21.103 0.897,22 2,22 L18,22 C19.103,22 20,21.103 20,20 L20,5 C20,3.897 19.103,3 18,3 L16,3 L16,1.5 C16,0.948 15.552,0.5 15,0.5 C14.448,0.5 14,0.948 14,1.5 L14,3 L6,3 L6,1.5 C6,0.948 5.552,0.5 5,0.5 L5,0.5 Z M14,4 L14,4.5 C14,5.052 14.448,5.5 15,5.5 C15.552,5.5 16,5.052 16,4.5 L16,4 L18,4 C18.552,4 19,4.448 19,5 L19,20 C19,20.552 18.552,21 18,21 L2,21 C1.449,21 1,20.552 1,20 L1,5 C1,4.448 1.449,4 2,4 L4,4 L4,4.5 C4,5.052 4.448,5.5 5,5.5 C5.552,5.5 6,5.052 6,4.5 L6,4 L14,4 L14,4 Z" id="Shape"></path>
                    <rect id="Rectangle-path" x="3" y="9" width="4" height="2"></rect>
                    <rect id="Rectangle-path" x="8" y="9" width="4" height="2"></rect>
                    <rect id="Rectangle-path" x="3" y="14" width="4" height="2"></rect>
                    <rect id="Rectangle-path" x="8" y="14" width="4" height="2"></rect>
                    <rect id="Rectangle-path" x="13" y="9" width="4" height="2"></rect>
                </g>
            </g>
        </g>
    </g>
</svg>