<?xml version="1.0" encoding="UTF-8"?>
<svg width="48px" height="48px" viewBox="0 0 48 48" version="1.1" xmlns="http://www.w3.org/2000/svg" xmlns:xlink="http://www.w3.org/1999/xlink">
    <!-- Generator: Sketch 44.1 (41455) - http://www.bohemiancoding.com/sketch -->
    <title>icon_category_user__xxl __white</title>
    <desc>Created with Sketch.</desc>
    <defs></defs>
    <g id="Actual" stroke="none" stroke-width="1" fill="none" fill-rule="evenodd">
        <g id="Payment-hub-00" transform="translate(-163.000000, -157.000000)">
            <g id="row" transform="translate(15.000000, 145.000000)">
                <g id="item" transform="translate(115.000000, 0.000000)">
                    <g id="icon_category_user__xxl-__white" transform="translate(33.000000, 12.000000)">
                        <g id="ungroup">
                            <rect id="Rectangle-path" x="0" y="0" width="48" height="48"></rect>
                            <g id="a1" opacity="0.4"></g>
                            <path d="M35.325,34.523 C31.064,32.396 30.04,31.18 30.002,26.413 C33.199,23.309 35,17.852 35,12.5 C35,6.681 33.75,0 24,0 C14.25,0 13,6.681 13,12.5 C13,17.852 14.801,23.311 17.999,26.415 C17.97,31.234 16.955,32.356 12.676,34.492 C9.209,36.221 0,41 0,48 L1,48 C1,41 9.807,37.071 13.122,35.418 C17.194,33.386 18.781,31.968 18.978,27.255 C20.426,28.347 22.104,29 24,29 C25.896,29 27.573,28.347 29.02,27.256 C29.206,32.006 30.789,33.346 34.879,35.387 C38.193,37.04 47,41 47,48 L48,48 C48,41 38.791,36.252 35.325,34.523 L35.325,34.523 Z M24,28 C17.103,28 14,18.937 14,12.5 C14,4.332 16.897,1 24,1 C31.103,1 34,4.332 34,12.5 C34,18.937 30.897,28 24,28 L24,28 Z" id="Shape" fill="#FFFFFF"></path>
                        </g>
                    </g>
                </g>
            </g>
        </g>
    </g>
</svg>