<?xml version="1.0" encoding="UTF-8"?>
<svg width="34px" height="35px" viewBox="0 0 34 35" version="1.1" xmlns="http://www.w3.org/2000/svg" xmlns:xlink="http://www.w3.org/1999/xlink">
    <!-- Generator: Sketch 44.1 (41455) - http://www.bohemiancoding.com/sketch -->
    <title>icon_tool_payment_to_self__xl__white</title>
    <desc>Created with Sketch.</desc>
    <defs></defs>
    <g id="Actual" stroke="none" stroke-width="1" fill="none" fill-rule="evenodd">
        <g id="1280-Payment-hub" transform="translate(-551.000000, -250.000000)">
            <g id="Group-7" transform="translate(310.000000, 202.000000)">
                <g id="Group-4" transform="translate(240.000000, 48.000000)">
                    <g id="icon_tool_payment_to_self__xl__white">
                        <g id="ungroup">
                            <rect id="Rectangle-path" x="0" y="0" width="36" height="36"></rect>
                            <path d="M18,21 C13,21 10,14.9 10,9.1 C10,4.8 10.9,0 18,0 C25.1,0 26,4.8 26,9.1 C26,14.9 23,21 18,21 L18,21 Z M18,1 C13,1 11,3.3 11,9.1 C11,13.6 13.2,20 18,20 C22.8,20 25,13.6 25,9.1 C25,3.3 23,1 18,1 L18,1 Z" id="Shape" fill="#0B1F35"></path>
                            <path d="M2,34.6 L1,34.6 C1,29.2 7.6,25.7 9.8,24.6 C12.7,23.1 13.3,22.5 13.3,18.6 L14.3,18.6 C14.3,22.6 13.7,23.7 10.3,25.5 C8.2,26.5 2,29.7 2,34.6 L2,34.6 Z" id="Shape" fill="#0B1F35"></path>
                            <path d="M35,34.6 L34,34.6 C34,29.8 27.8,26.5 25.7,25.5 C22.3,23.8 21.7,22.7 21.7,18.6 L22.7,18.6 C22.7,22.5 23.3,23.1 26.2,24.6 C28.4,25.7 35,29.1 35,34.6 L35,34.6 Z" id="Shape" fill="#0B1F35"></path>
                            <g id="Group" opacity="0.3"></g>
                        </g>
                    </g>
                </g>
            </g>
        </g>
    </g>
</svg>